<svg xmlns="http://www.w3.org/2000/svg" viewBox="0 0 148.96 148.96"><defs><style>.cls-1{fill-rule:evenodd;}</style></defs><g id="Layer_2" data-name="Layer 2"><g id="Layer_1-2" data-name="Layer 1"><g id="SVGRepo_iconCarrier" data-name="SVGRepo iconCarrier"><g id="Page-1"><g id="Dribbble-Light-Preview"><g id="icons"><path id="github-_142_" data-name="github-[#142]" class="cls-1" d="M74.48,0C115.62,0,149,34.19,149,76.36c0,33.74-21.32,62.35-50.89,72.46-3.78.75-5.12-1.63-5.12-3.67,0-2.51.09-10.74.09-21,0-7.11-2.38-11.76-5.06-14.13,16.59-1.89,34-8.35,34-37.68a29.9,29.9,0,0,0-7.67-20.5c.77-1.93,3.33-9.69-.73-20.21,0,0-6.24-2.05-20.46,7.83a69,69,0,0,0-37.3,0c-14.24-9.88-20.49-7.83-20.49-7.83C31.3,42.19,33.86,50,34.63,51.88A30,30,0,0,0,27,72.38c0,29.26,17.4,35.81,33.94,37.74-2.13,1.91-4.06,5.27-4.73,10.21-4.25,2-15,5.33-21.68-6.34,0,0-3.94-7.34-11.41-7.88,0,0-7.27-.1-.51,4.64,0,0,4.88,2.35,8.27,11.17,0,0,4.37,13.64,25.09,9,0,6.38.1,12.4.1,14.21,0,2-1.37,4.38-5.08,3.68C21.34,138.73,0,110.11,0,76.36,0,34.19,33.35,0,74.48,0"/></g></g></g></g></g></g></svg>